<?xml version="1.0" encoding="utf-8"?>
<!-- Generator: Adobe Illustrator 16.0.0, SVG Export Plug-In . SVG Version: 6.00 Build 0)  -->
<!DOCTYPE svg PUBLIC "-//W3C//DTD SVG 1.1//EN" "http://www.w3.org/Graphics/SVG/1.1/DTD/svg11.dtd">
<svg version="1.1" id="Layer_1" xmlns="http://www.w3.org/2000/svg" xmlns:xlink="http://www.w3.org/1999/xlink" x="0px" y="0px"
	 width="3401.57px" height="3401.57px" viewBox="0 0 3401.57 3401.57" enable-background="new 0 0 3401.57 3401.57"
	 xml:space="preserve">
<g>
	<path fill-rule="evenodd" clip-rule="evenodd" d="M1570.055,1644.759c0.394,0.095,0.79,0.183,1.182,0.286
		c2.49,0.654,4.407,2.079,5.767,4.267c1.927,3.1,3.868,6.19,5.799,9.287c3.312,5.313,6.619,10.629,9.928,15.944
		c0.132,0.212,0.258,0.428,0.381,0.633c-0.537,0.548-7.099,4.196-9.648,5.364c-0.173-0.257-0.371-0.523-0.542-0.806
		c-2.586-4.282-5.18-8.56-7.747-12.854c-0.849-1.42-1.935-2.552-3.468-3.214c-3.311-1.429-6.928-0.272-8.854,2.865
		c-1.563,2.547-3.083,5.122-4.622,7.684c-1.15,1.915-2.317,3.82-3.439,5.752c-0.292,0.503-0.634,0.698-1.205,0.67
		c-0.848-0.041-1.7,0.009-2.549-0.014c-3.105-0.083-6.211-0.179-9.451-0.274c0.164-0.3,0.306-0.591,0.476-0.865
		c3.5-5.641,7.002-11.28,10.505-16.919c2.739-4.41,5.491-8.812,8.216-13.23c1.335-2.164,3.185-3.613,5.646-4.27
		c0.388-0.104,0.778-0.205,1.167-0.307C1568.417,1644.759,1569.236,1644.759,1570.055,1644.759z"/>
	<path fill-rule="evenodd" clip-rule="evenodd" d="M1693.268,1836.948c-0.18,0.047-0.359,0.133-0.539,0.134
		c-1.346,0.012-2.691,0.007-4.015,0.007c-0.215-0.74-0.261-5.513-0.075-6.76c1.445,0,2.902,0,4.43,0c0,0.37,0,0.725,0,1.206
		c-0.974,0-1.929,0-2.934,0c0,0.483,0,0.842,0,1.302c0.843,0,1.647,0,2.531,0c0,0.481,0,0.865,0,1.38c-0.824,0-1.651,0-2.53,0
		c0,0.582,0,1.033,0,1.598c1.077,0,2.104,0,3.131,0C1693.268,1836.192,1693.268,1836.57,1693.268,1836.948z"/>
	<path fill-rule="evenodd" clip-rule="evenodd" d="M1451.189,1832.791c0.121-0.218,0.286-0.423,0.356-0.656
		c0.341-1.141,1.274-1.919,2.91-1.938c0.762-0.009,1.491,0.172,2.202,0.568c0,0.328,0,0.664,0,1.097
		c-0.482-0.108-0.922-0.216-1.365-0.306c-1.462-0.294-2.324,0.366-2.405,1.845c-0.015,0.281-0.014,0.569,0.026,0.847
		c0.185,1.279,0.853,1.734,2.274,1.48c0-0.623,0-1.269,0-1.988c0.552,0,1.002,0,1.555,0c0.1,0.869,0.056,1.74,0.025,2.606
		c-0.005,0.14-0.183,0.341-0.326,0.396c-0.853,0.33-1.719,0.614-2.659,0.398c-1.086-0.249-1.89-0.811-2.245-1.92
		c-0.063-0.197-0.23-0.361-0.349-0.54C1451.189,1834.051,1451.189,1833.421,1451.189,1832.791z"/>
	<path fill-rule="evenodd" clip-rule="evenodd" d="M1605.255,1746.938c13.495,0,26.838,0,40.291,0
		c-0.11,0.295-0.157,0.498-0.255,0.67c-2.099,3.658-4.237,7.295-6.291,10.979c-0.772,1.384-1.946,1.934-3.397,2.008
		c-2.956,0.151-5.913,0.299-8.874,0.061c-1.095-0.088-2.197-0.136-3.276,0.229c-0.314,0.105-0.687,0.051-1.032,0.048
		c-6.708-0.044-13.415-0.112-20.123-0.133c-7.836-0.023-15.672-0.028-23.508-0.001c-9.443,0.033-18.886,0.133-28.33,0.158
		c-9.196,0.025-18.393-0.007-27.588-0.014c-0.305-0.001-0.61,0-1.063,0c0.197-0.4,0.314-0.678,0.464-0.937
		c7.192-12.495,14.385-24.988,21.581-37.48c3.833-6.655,7.68-13.304,11.498-19.968c0.418-0.73,0.78-1.521,1.002-2.33
		c0.566-2.066-0.337-3.643-2.405-4.195c-0.81-0.217-1.677-0.298-2.52-0.302c-6.55-0.032-13.101-0.035-19.652-0.038
		c-5.889-0.003-11.778,0.006-17.668,0.009c-0.366,0-0.732,0-1.209,0c0.129-0.313,0.18-0.485,0.267-0.637
		c2.1-3.658,4.242-7.292,6.285-10.982c0.79-1.426,1.998-1.998,3.469-2.054c2.578-0.098,5.161-0.063,7.742-0.094
		c2.074-0.025,4.147-0.057,6.221-0.104c1.914-0.043,3.827-0.133,5.741-0.16c2.015-0.028,4.044-0.15,6.044,0.026
		c3.833,0.337,7.668,0.136,11.5,0.226c6.736,0.157,13.479,0.05,20.218,0.069c0.875,0.002,1.75,0.097,2.771,0.158
		c-0.266,0.48-0.454,0.833-0.653,1.18c-10.852,18.815-21.708,37.627-32.541,56.453c-0.496,0.861-0.907,1.81-1.152,2.771
		c-0.484,1.904,0.356,3.388,2.217,3.997c0.766,0.252,1.599,0.408,2.403,0.415c3.621,0.03,7.241-0.007,10.862-0.023
		c0.121,0,0.242-0.031,0.472-0.063c0-9.508,0-18.997,0-28.539c3.091,0,6.068,0,9.173,0c0,9.508,0,19,0,28.549
		c0.614,0,1.102,0,1.723,0c0.043-2.971,0.014-5.917,0.019-8.862c0.005-2.929,0.001-5.858,0.001-8.787c0-2.96,0-5.921,0-8.881
		c0-2.923,0-5.847,0-8.827c6.262,0,12.445,0,18.736,0c0,11.801,0,23.56,0,35.366c0.597,0,1.085,0,1.695,0c0-9.535,0-19.023,0-28.561
		c3.069,0,6.017,0,9.084,0c0.126,2.367,0.037,4.744,0.054,7.118c0.016,2.362,0.003,4.724,0.003,7.086c0,2.393,0,4.787,0,7.18
		C1605.255,1742.076,1605.255,1744.433,1605.255,1746.938z M1582.06,1746.878c2.037,0,3.969,0,5.901,0c0-1.815,0-3.56,0-5.307
		c-1.996,0-3.927,0-5.901,0C1582.06,1743.354,1582.06,1745.07,1582.06,1746.878z M1583.561,1737.632c0-1.465,0-2.807,0-4.138
		c-1.073-0.19-4.516-0.153-5.155,0.043c0,1.348,0,2.692,0,4.095C1580.133,1737.632,1581.812,1737.632,1583.561,1737.632z
		 M1592.265,1728.936c0-1.423,0-2.783,0-4.176c-1.757,0-3.458,0-5.149,0c0,1.431,0,2.792,0,4.176
		C1588.859,1728.936,1590.535,1728.936,1592.265,1728.936z M1583.083,1724.701c-0.954,0-1.797-0.009-2.64,0.003
		c-0.829,0.012-1.664-0.057-2.537,0.05c-0.021,1.461-0.059,2.823,0.017,4.165c1.561,0.173,4.51,0.114,5.16-0.091
		C1583.083,1727.495,1583.083,1726.156,1583.083,1724.701z M1587.173,1719.77c1.737,0,3.415,0,5.127,0c0-1.405,0-2.762,0-4.112
		c-1.745,0-3.421,0-5.127,0C1587.173,1717.058,1587.173,1718.39,1587.173,1719.77z M1578.029,1715.64c0,1.411,0,2.77,0,4.129
		c1.739,0,3.412,0,5.119,0c0-1.409,0-2.745,0-4.129C1581.416,1715.64,1579.74,1715.64,1578.029,1715.64z M1592.735,1733.44
		c-1.792,0-3.471,0-5.177,0c0,1.398,0,2.731,0,4.055c1.186,0.188,4.542,0.137,5.177-0.068
		C1592.735,1736.117,1592.735,1734.807,1592.735,1733.44z M1570.813,1727.695c0-1.057,0.006-1.998-0.002-2.939
		c-0.008-0.96,0.035-1.924-0.025-2.858c-0.969,0-1.804,0-2.665,0c0,1.968,0,3.871,0,5.798
		C1569.024,1727.695,1569.862,1727.695,1570.813,1727.695z M1601.847,1736.598c0.177-1.418,0.126-5.145-0.063-5.799
		c-0.838,0-1.674,0-2.548,0c0,1.953,0,3.852,0,5.799C1600.133,1736.598,1600.97,1736.598,1601.847,1736.598z M1570.747,1745.484
		c0-2.011,0-3.911,0-5.815c-0.909,0-1.746,0-2.624,0c0,1.958,0,3.865,0,5.815
		C1569.018,1745.484,1569.856,1745.484,1570.747,1745.484z M1599.2,1739.511c0,1.953,0,3.853,0,5.776c0.913,0,1.771,0,2.719,0
		c-0.021-1.973,0.044-3.873-0.037-5.776C1600.923,1739.511,1600.085,1739.511,1599.2,1739.511z M1601.801,1721.729
		c-0.905,0-1.737,0-2.598,0c0,1.956,0,3.856,0,5.785c0.89,0,1.721,0,2.598,0C1601.801,1725.578,1601.801,1723.7,1601.801,1721.729z
		 M1568.199,1730.961c0,2.005,0,3.9,0,5.794c0.899,0,1.728,0,2.578,0c0-1.957,0-3.853,0-5.794
		C1569.897,1730.961,1569.069,1730.961,1568.199,1730.961z"/>
	<path fill-rule="evenodd" clip-rule="evenodd" d="M1544.57,1696.938c-0.299,0.512-0.483,0.835-0.674,1.154
		c-12.065,20.107-24.13,40.215-36.2,60.319c-0.671,1.117-1.242,2.265-1.344,3.589c-0.247,3.212,1.769,6.011,4.987,6.891
		c0.541,0.147,1.115,0.177,1.674,0.248c0.187,0.023,0.378,0.008,0.566,0.008c36.94,0,73.881-0.001,110.821,0.005
		c1.02,0,2.019-0.086,2.958-0.489c2.519-1.083,3.863-3.025,4.112-5.741c0.023-0.247,0.003-0.498,0.003-0.814
		c0.283-0.042,0.518-0.101,0.755-0.108c1.07-0.037,2.141-0.088,3.211-0.081c2.135,0.012,3.761-0.814,4.81-2.729
		c0.604-1.104,1.284-2.166,1.933-3.245c0.157-0.261,0.323-0.515,0.521-0.83c0.183,0.258,0.318,0.429,0.432,0.613
		c2.312,3.752,4.626,7.501,6.927,11.26c1.692,2.765,1.925,5.633,0.397,8.529c-1.288,2.441-3.411,3.815-6.088,4.337
		c-0.735,0.144-1.498,0.205-2.248,0.206c-48.75,0.009-97.5,0.008-146.25,0.01c-2.238,0-4.288-0.591-6.106-1.909
		c-3.282-2.379-4.324-6.408-2.602-10.077c0.253-0.539,0.561-1.056,0.875-1.563c14.205-22.896,28.416-45.786,42.605-68.691
		c0.418-0.675,0.854-0.922,1.647-0.913c3.716,0.046,7.432,0.022,11.148,0.023C1543.75,1696.938,1544.059,1696.938,1544.57,1696.938z
		"/>
	<path fill-rule="evenodd" clip-rule="evenodd" d="M1636.903,1745.629c-4.904,0-9.611,0-14.399,0
		c-12.271-20.436-24.561-40.903-36.911-61.472c3.29-1.782,6.51-3.526,9.82-5.319
		C1609.25,1701.112,1623.037,1723.307,1636.903,1745.629z"/>
	<path fill-rule="evenodd" clip-rule="evenodd" d="M1621.394,1807.682c1.905,0.684,2.433,2.132,2.569,3.824
		c0.025,0.313,0.05,0.629,0.048,0.942c-0.024,4.03-0.053,8.06-0.083,12.089c-0.001,0.123-0.024,0.246-0.044,0.437
		c-2.129,0-4.249,0-6.488,0c0-0.388,0-0.755,0-1.122c0-3.746,0.002-7.493-0.002-11.239c0-0.408-0.014-0.819-0.061-1.225
		c-0.118-1.002-0.503-1.373-1.51-1.468c-0.273-0.026-0.551-0.004-0.9-0.004c0,5.039,0,10.006,0,14.949
		c-0.734,0.22-4.644,0.283-6.628,0.13c-0.212-0.657-0.261-32.157-0.033-33.246c0.261,0,0.539,0,0.818,0
		c3.022,0.001,6.044-0.005,9.067,0.005c0.597,0.002,1.204-0.001,1.788,0.104c2.027,0.363,3.366,1.596,3.88,3.548
		c0.737,2.796,0.897,5.656,0.364,8.515C1623.821,1805.839,1623.277,1806.521,1621.394,1807.682z M1615.004,1804.068
		c0.457,0,0.859-0.018,1.26,0.004c0.706,0.039,1.164-0.318,1.348-0.944c0.424-1.445,0.374-2.915,0.076-4.378
		c-0.08-0.39-0.315-0.696-0.746-0.75c-0.644-0.081-1.292-0.181-1.938,0.049C1615.004,1800.054,1615.004,1802.017,1615.004,1804.068z
		"/>
	<path fill-rule="evenodd" clip-rule="evenodd" d="M1658.93,1806.513c2.52,0.914,3.174,2.841,3.472,4.926
		c0.417,2.924,0.267,5.838-0.496,8.705c-0.081,0.303-0.187,0.6-0.292,0.896c-0.915,2.601-2.843,3.887-5.507,3.968
		c-3.176,0.098-6.357,0.028-9.536,0.027c-0.087,0-0.174-0.045-0.304-0.081c0-11.037,0-22.065,0-33.145
		c0.226-0.022,0.407-0.056,0.587-0.056c3.085,0.005,6.169,0.001,9.253,0.035c0.622,0.007,1.257,0.104,1.861,0.256
		c2.574,0.649,3.776,2.507,4.064,4.979c0.181,1.554,0.182,3.141,0.116,4.707C1662.06,1803.827,1661.309,1805.594,1658.93,1806.513z
		 M1652.792,1819.073c2.074,0.334,3.157-0.517,3.191-2.454c0.025-1.416,0.033-2.834-0.011-4.248
		c-0.019-0.589-0.154-1.183-0.303-1.756c-0.146-0.558-0.557-0.937-1.121-1.033c-0.575-0.098-1.171-0.154-1.756,0.067
		C1652.792,1812.796,1652.792,1815.908,1652.792,1819.073z M1652.81,1804.259c0.462,0,0.806,0.009,1.15-0.002
		c0.898-0.027,1.41-0.364,1.464-1.266c0.099-1.66,0.086-3.33,0.051-4.995c-0.013-0.633-0.417-1.025-0.994-1.087
		c-0.547-0.058-1.104-0.013-1.671-0.013C1652.81,1799.394,1652.81,1801.774,1652.81,1804.259z"/>
	<path fill-rule="evenodd" clip-rule="evenodd" d="M1505.92,1825c-2.213,0-4.344,0-6.593,0c0-5.023,0-10.008,0-15.032
		c-1.082,0-2.043,0-3.089,0c0,5.003,0,9.964,0,14.901c-0.738,0.211-4.865,0.271-6.542,0.119c-0.179-0.68-0.253-31.392-0.08-33.086
		c0.663-0.188,5.171-0.239,6.547-0.062c0,3.872,0,7.76,0,11.753c1.075,0.114,2.057,0.04,3.139,0.055c0-3.987,0-7.876,0-11.831
		c2.251,0,4.403,0,6.618,0C1505.92,1802.864,1505.92,1813.894,1505.92,1825z"/>
	<path fill-rule="evenodd" clip-rule="evenodd" d="M1545.294,1825.008c-2.166,0-4.204,0-6.337,0
		c-0.159-1.723-0.318-3.434-0.488-5.272c-1.3-0.068-2.6-0.023-3.981-0.022c-0.139,1.795-0.271,3.508-0.406,5.273
		c-2.167,0-4.291,0-6.493,0c1.067-11.05,2.131-22.061,3.194-33.062c0.68-0.217,9.445-0.296,11.34-0.094
		C1543.175,1802.84,1544.23,1813.877,1545.294,1825.008z M1537.898,1814.27c0.045-1.756-1.301-16.163-1.682-16.745
		c-0.408,5.57-0.815,11.141-1.226,16.745C1536.033,1814.27,1536.934,1814.27,1537.898,1814.27z"/>
	<path fill-rule="evenodd" clip-rule="evenodd" d="M1602.596,1791.829c1.055,11.045,2.108,22.063,3.167,33.149
		c-2.108,0-4.172,0-6.335,0c-0.157-1.689-0.315-3.4-0.473-5.105c-0.663-0.209-2.871-0.247-4.002-0.057
		c-0.13,1.688-0.263,3.401-0.398,5.168c-2.165,0-4.288,0-6.493,0c1.067-11.046,2.131-22.057,3.193-33.058
		C1591.931,1791.707,1600.621,1791.624,1602.596,1791.829z M1596.856,1797.5c-0.056,0.007-0.111,0.013-0.167,0.02
		c-0.407,5.557-0.815,11.113-1.227,16.725c0.293,0.028,0.504,0.063,0.716,0.066c0.715,0.007,1.43,0.002,2.262,0.002
		c-0.484-5.577-0.958-11.045-1.438-16.513C1596.993,1797.696,1596.906,1797.601,1596.856,1797.5z"/>
	<path fill-rule="evenodd" clip-rule="evenodd" d="M1680.366,1819.774c-0.129,1.726-0.256,3.416-0.382,5.103
		c-0.652,0.204-5.409,0.249-6.501,0.055c1.063-11.01,2.128-22.023,3.19-33.021c0.712-0.195,9.885-0.253,11.34-0.065
		c1.052,11.01,2.107,22.046,3.167,33.144c-2.131,0-4.194,0-6.337,0c-0.159-1.723-0.317-3.434-0.482-5.214
		C1683.066,1819.774,1681.792,1819.774,1680.366,1819.774z M1683.842,1814.274c-0.035-0.512-0.057-0.916-0.091-1.319
		c-0.229-2.662-0.461-5.323-0.692-7.984c-0.199-2.286-0.395-4.571-0.601-6.856c-0.019-0.207-0.102-0.407-0.155-0.611
		c-0.066,0.013-0.133,0.025-0.2,0.038c-0.406,5.563-0.813,11.124-1.222,16.733
		C1681.914,1814.274,1682.813,1814.274,1683.842,1814.274z"/>
	<path fill-rule="evenodd" clip-rule="evenodd" d="M1476.372,1819.758c-0.137,1.789-0.267,3.479-0.4,5.225c-2.158,0-4.277,0-6.494,0
		c1.072-11.093,2.139-22.127,3.208-33.191c3.814,0,7.518,0,11.324,0c1.056,11.061,2.109,22.096,3.169,33.196
		c-2.165,0-4.226,0-6.337,0c-0.161-1.75-0.318-3.466-0.479-5.229C1479.018,1819.758,1477.742,1819.758,1476.372,1819.758z
		 M1479.848,1814.253c-0.167-1.938-0.328-3.811-0.489-5.683c-0.159-1.849-0.295-3.7-0.481-5.546
		c-0.185-1.829-0.234-3.676-0.533-5.491c-0.08,0.003-0.16,0.006-0.24,0.009c-0.407,5.556-0.815,11.112-1.226,16.711
		C1477.919,1814.253,1478.845,1814.253,1479.848,1814.253z"/>
	<path fill-rule="evenodd" clip-rule="evenodd" d="M1514.897,1824.993c-2.145,0-4.241,0-6.481,0
		c1.044-11.065,2.131-22.095,3.195-33.182c3.79,0,7.517,0,11.33,0c1.056,11.059,2.108,22.091,3.165,33.167
		c-0.269,0.029-0.42,0.061-0.571,0.062c-1.885,0.003-3.77,0.002-5.753,0.002c-0.167-1.788-0.33-3.523-0.495-5.285
		c-1.356,0-2.633,0-3.98,0C1515.169,1821.519,1515.035,1823.233,1514.897,1824.993z M1517.325,1797.516
		c-0.095-0.002-0.189-0.003-0.284-0.004c-0.417,5.568-0.833,11.138-1.224,16.736c1.044,0,1.97,0,2.967,0
		C1518.293,1808.623,1517.809,1803.069,1517.325,1797.516z"/>
	<path fill-rule="evenodd" clip-rule="evenodd" d="M1629.348,1791.8c3.84,0,7.542,0,11.324,0
		c1.056,11.053,2.107,22.063,3.157,33.061c-0.699,0.221-4.675,0.282-6.322,0.104c-0.161-1.714-0.323-3.449-0.488-5.206
		c-1.362,0-2.638,0-3.981,0c-0.138,1.764-0.271,3.479-0.409,5.235c-2.15,0-4.246,0-6.482,0
		C1627.198,1813.924,1628.275,1802.894,1629.348,1791.8z M1636.519,1814.274c-0.493-5.655-0.978-11.205-1.462-16.755
		c-0.095-0.001-0.19-0.001-0.285-0.002c-0.417,5.57-0.835,11.14-1.222,16.757
		C1634.577,1814.274,1635.479,1814.274,1636.519,1814.274z"/>
	<path fill-rule="evenodd" clip-rule="evenodd" d="M1556.9,1791.813c4.443,0,8.832,0,13.268,0c0,2.125,0,4.188,0,6.354
		c-2.165,0-4.289,0-6.476,0c0,2.189,0,4.277,0,6.467c2.053,0,4.083,0,6.165,0c0,2.129,0,4.156,0,6.304c-2.068,0-4.097,0-6.175,0
		c0,2.59,0,5.058,0,7.624c2.297,0,4.55,0,6.866,0c0,2.187,0,4.275,0,6.424c-4.533,0-9.052,0-13.573,0
		C1556.791,1824.316,1556.711,1793.688,1556.9,1791.813z"/>
	<path fill-rule="evenodd" clip-rule="evenodd" d="M1460.813,1797.859c-2.284,0-4.476,0-6.737,0c0-2.036,0-4,0-5.964
		c0.71-0.19,12.906-0.214,13.896-0.003c0,0.85-0.06,1.729,0.012,2.596c0.172,2.057-0.314,3.954-1.035,5.869
		c-2.192,5.823-4.284,11.685-6.414,17.532c-0.104,0.285-0.2,0.573-0.343,0.987c2.519,0,4.9,0,7.351,0c0,2.083,0,4.072,0,6.114
		c-4.727,0-9.433,0-14.202,0c-0.024-0.248-0.066-0.487-0.066-0.728c-0.003-1.731-0.215-3.499,0.067-5.183
		c0.276-1.648,1.049-3.215,1.62-4.812c1.843-5.148,3.695-10.293,5.541-15.44C1460.605,1798.54,1460.689,1798.244,1460.813,1797.859z
		"/>
	<path fill-rule="evenodd" clip-rule="evenodd" d="M1573.295,1791.801c2.152,0,4.311,0,6.567,0c0,9.19,0,18.331,0,27.568
		c2.314,0,4.532,0,6.807,0c0,1.907,0,3.719,0,5.604c-4.444,0-8.896,0-13.355,0
		C1573.121,1824.293,1573.092,1792.733,1573.295,1791.801z"/>
	<path fill-rule="evenodd" clip-rule="evenodd" d="M1664.944,1824.965c0-11.064,0-22.075,0-33.15c2.129,0,4.216,0,6.354,0
		c0,11.056,0,22.066,0,33.078C1670.648,1825.078,1666.483,1825.134,1664.944,1824.965z"/>
	<path fill-rule="evenodd" clip-rule="evenodd" d="M1630.072,1835.961c-0.469-1.031-0.903-1.986-1.338-2.941
		c-0.051,0.012-0.101,0.024-0.151,0.036c0,1.299,0,2.598,0,3.967c-0.489,0-0.907,0-1.382,0c0-2.248,0-4.464,0-6.666
		c0.076-0.048,0.126-0.104,0.182-0.109c1.65-0.163,1.65-0.163,2.308,1.313c0.314,0.705,0.627,1.411,1.026,2.31
		c0.402-0.951,0.723-1.717,1.049-2.48c0.523-1.221,0.525-1.221,1.841-1.183c0.155,0.004,0.31,0.029,0.454,0.044
		c0.229,0.684,0.266,5.8,0.044,6.781c-0.44,0-0.892,0-1.434,0c0-0.711,0-1.362,0-2.015c0-0.618,0-1.236,0-1.854
		c-0.064-0.019-0.129-0.037-0.193-0.056c-0.437,0.944-0.873,1.888-1.319,2.854
		C1630.796,1835.961,1630.46,1835.961,1630.072,1835.961z"/>
	<path fill-rule="evenodd" clip-rule="evenodd" d="M1666.49,1834.074c0-1.247,0-2.494,0-3.809c0.484,0,0.903,0,1.38,0
		c0,2.252,0,4.469,0,6.747c-0.262,0.026-0.504,0.044-0.744,0.076c-0.493,0.068-0.815-0.118-1.081-0.555
		c-0.572-0.94-1.198-1.849-1.806-2.767c-0.114-0.172-0.249-0.331-0.496-0.659c0,1.401,0,2.608,0,3.896c-0.491,0-0.907,0-1.388,0
		c0-2.229,0-4.446,0-6.662c1.158-0.309,1.25-0.275,1.858,0.645c0.689,1.045,1.379,2.089,2.069,3.133
		C1666.352,1834.105,1666.421,1834.09,1666.49,1834.074z"/>
	<path fill-rule="evenodd" clip-rule="evenodd" d="M1615.92,1830.281c0,2.25,0,4.445,0,6.636c-1.16,0.368-1.387,0.292-2.019-0.667
		c-0.656-0.996-1.312-1.992-2.057-2.976c-0.198,1.23-0.011,2.469-0.113,3.749c-0.46,0-0.855,0-1.385,0
		c-0.048-2.215-0.01-4.434-0.023-6.637c1.106-0.38,1.314-0.315,1.896,0.565c0.59,0.893,1.176,1.787,1.767,2.679
		c0.114,0.173,0.241,0.337,0.499,0.694c0-1.481,0-2.721,0-4.044C1614.977,1830.281,1615.395,1830.281,1615.92,1830.281z"/>
	<path fill-rule="evenodd" clip-rule="evenodd" d="M1479.824,1834.513c0.464,0.847,0.896,1.633,1.345,2.452
		c-0.178,0.064-0.257,0.105-0.342,0.121c-0.966,0.181-1.605-0.164-1.938-1.123c-0.152-0.437-0.438-0.827-0.671-1.251
		c-0.31,0-0.586,0-0.962,0c0,0.743,0,1.483,0,2.303c-0.549,0-1,0-1.458,0c-0.206-0.637-0.255-5.53-0.04-6.749
		c1.219,0.02,2.475-0.152,3.702,0.119c1.52,0.337,2.067,2.395,0.999,3.575C1480.293,1834.143,1480.085,1834.287,1479.824,1834.513z
		 M1477.268,1833.357c0.478,0,0.852,0.021,1.222-0.005c0.598-0.043,0.902-0.339,0.925-0.853c0.024-0.536-0.236-0.854-0.838-0.92
		c-0.422-0.046-0.853-0.009-1.309-0.009C1477.268,1832.202,1477.268,1832.725,1477.268,1833.357z"/>
	<path fill-rule="evenodd" clip-rule="evenodd" d="M1513.156,1834.34c0-1.49,0-2.758,0-4.084c0.475,0,0.864,0,1.324,0
		c0,2.244,0,4.461,0,6.677c-1.138,0.334-1.331,0.27-1.931-0.639c-0.67-1.014-1.341-2.026-2.187-3.002c0,1.228,0,2.455,0,3.737
		c-0.474,0-0.839,0-1.213,0c-0.228-0.591-0.306-5.276-0.105-6.694c1.131-0.292,1.22-0.261,1.833,0.671
		c0.587,0.893,1.169,1.789,1.759,2.68C1512.748,1833.854,1512.889,1834.005,1513.156,1834.34z"/>
	<path fill-rule="evenodd" clip-rule="evenodd" d="M1554.136,1837.051c-0.299,0.014-0.547,0.011-0.792,0.04
		c-0.43,0.051-0.698-0.137-0.922-0.495c-0.551-0.878-1.129-1.738-1.702-2.603c-0.166-0.251-0.352-0.488-0.691-0.692
		c0,1.229,0,2.459,0,3.735c-0.472,0-0.838,0-1.203,0c-0.218-0.635-0.278-5.555-0.082-6.716c1.178-0.262,1.198-0.255,1.829,0.703
		c0.656,0.998,1.311,1.996,1.97,2.992c0.033,0.049,0.094,0.08,0.271,0.225c0-1.38,0-2.661,0-3.991c0.492,0,0.859,0,1.23,0
		C1554.274,1830.846,1554.352,1835.562,1554.136,1837.051z"/>
	<path fill-rule="evenodd" clip-rule="evenodd" d="M1648.635,1830.234c0.524,0,0.891,0,1.246,0c0.211,0.744,0.235,5.855,0.029,6.813
		c-0.226,0.013-0.471,0.014-0.713,0.044c-0.465,0.058-0.753-0.146-0.994-0.538c-0.528-0.854-1.093-1.688-1.647-2.526
		c-0.17-0.258-0.354-0.508-0.652-0.935c-0.124,0.785-0.055,1.396-0.064,1.998c-0.01,0.623-0.002,1.246-0.002,1.932
		c-0.461,0-0.849,0-1.309,0c0-2.238,0-4.455,0-6.672c1.093-0.322,1.233-0.274,1.834,0.64c0.587,0.893,1.17,1.788,1.759,2.679
		c0.114,0.172,0.251,0.328,0.515,0.668C1648.635,1832.859,1648.635,1831.595,1648.635,1830.234z"/>
	<path fill-rule="evenodd" clip-rule="evenodd" d="M1675.708,1830.307c0.921-0.335,1.462-0.01,1.899,0.755
		c0.513,0.899,1.123,1.743,1.696,2.607c0.113,0.172,0.251,0.327,0.514,0.666c0-1.476,0-2.742,0-4.072c0.476,0,0.865,0,1.253,0
		c0.203,0.718,0.226,5.832,0.02,6.785c-0.226,0.013-0.471,0.013-0.713,0.043c-0.466,0.058-0.753-0.147-0.994-0.538
		c-0.528-0.855-1.093-1.688-1.647-2.526c-0.17-0.259-0.354-0.509-0.68-0.741c0,1.225,0,2.449,0,3.737c-0.5,0-0.888,0-1.348,0
		C1675.708,1834.782,1675.708,1832.566,1675.708,1830.307z"/>
	<path fill-rule="evenodd" clip-rule="evenodd" d="M1463.488,1830.307c0.921-0.335,1.462-0.009,1.898,0.756
		c0.513,0.898,1.123,1.742,1.696,2.606c0.114,0.172,0.251,0.327,0.515,0.666c0-1.476,0-2.741,0-4.072c0.476,0,0.865,0,1.253,0
		c0.203,0.719,0.226,5.834,0.02,6.785c-0.226,0.013-0.471,0.013-0.713,0.043c-0.466,0.058-0.753-0.148-0.994-0.538
		c-0.528-0.855-1.093-1.688-1.647-2.526c-0.17-0.259-0.354-0.508-0.655-0.938c-0.117,0.79-0.052,1.4-0.061,2.003
		c-0.009,0.623-0.002,1.246-0.002,1.932c-0.462,0-0.85,0-1.31,0C1463.488,1834.782,1463.488,1832.565,1463.488,1830.307z"/>
	<path fill-rule="evenodd" clip-rule="evenodd" d="M1522.847,1834.67c0,0.832,0,1.549,0,2.345c-0.519,0-0.966,0-1.486,0
		c0-2.217,0-4.428,0-6.669c1.226,0,2.415-0.062,3.594,0.021c0.772,0.054,1.342,0.576,1.556,1.331
		c0.232,0.817,0.182,1.629-0.452,2.294c-0.169,0.178-0.371,0.324-0.602,0.523c0.452,0.818,0.898,1.627,1.384,2.506
		c-0.252,0.037-0.369,0.054-0.485,0.071c-0.835,0.127-1.451-0.083-1.751-0.976c-0.158-0.469-0.465-0.889-0.741-1.398
		C1523.593,1834.705,1523.291,1834.691,1522.847,1834.67z M1522.881,1833.335c0.551,0,1.019,0.043,1.476-0.013
		c0.439-0.053,0.708-0.428,0.715-0.851c0.008-0.438-0.23-0.795-0.692-0.854c-0.478-0.062-0.97-0.014-1.498-0.014
		C1522.881,1832.195,1522.881,1832.712,1522.881,1833.335z"/>
	<path fill-rule="evenodd" clip-rule="evenodd" d="M1582.396,1830.347c1.236,0,2.426-0.063,3.605,0.021
		c0.772,0.056,1.34,0.583,1.551,1.339c0.228,0.816,0.177,1.629-0.46,2.291c-0.17,0.177-0.372,0.323-0.594,0.514
		c0.446,0.809,0.882,1.599,1.361,2.468c-0.505,0.189-0.973,0.14-1.412,0.082c-0.192-0.026-0.402-0.268-0.518-0.462
		c-0.353-0.594-0.664-1.213-1.017-1.868c-0.29,0-0.592,0-1,0c0,0.735,0,1.474,0,2.287c-0.551,0-1,0-1.517,0
		C1582.396,1834.815,1582.396,1832.629,1582.396,1830.347z M1583.943,1831.604c0,0.618,0,1.158,0,1.73
		c0.529,0,0.998,0.044,1.454-0.012c0.44-0.054,0.707-0.429,0.713-0.853c0.007-0.438-0.23-0.793-0.693-0.853
		C1584.939,1831.557,1584.447,1831.604,1583.943,1831.604z"/>
	<path fill-rule="evenodd" clip-rule="evenodd" d="M1508.023,1833.745c-0.041,0.324-0.069,0.574-0.104,0.822
		c-0.242,1.722-1.393,2.58-2.932,2.632c-1.289,0.043-2.75-0.652-3.001-2.529c-0.094-0.7-0.092-1.444,0.037-2.137
		c0.285-1.54,1.385-2.363,2.95-2.342c1.6,0.022,2.657,0.922,2.927,2.505C1507.962,1833.066,1507.988,1833.443,1508.023,1833.745z
		 M1506.452,1833.696c-0.059-0.411-0.07-0.794-0.172-1.149c-0.201-0.694-0.726-1.077-1.372-1.068s-1.157,0.412-1.343,1.109
		c-0.197,0.739-0.194,1.491,0.012,2.229c0.188,0.67,0.638,1.014,1.281,1.037c0.719,0.025,1.175-0.271,1.399-0.994
		C1506.375,1834.478,1506.394,1834.064,1506.452,1833.696z"/>
	<path fill-rule="evenodd" clip-rule="evenodd" d="M1569.735,1833.609c-0.066,0.47-0.1,0.908-0.194,1.334
		c-0.372,1.689-1.753,2.302-2.952,2.253c-1.741-0.071-2.578-0.973-2.889-2.343c-0.195-0.862-0.19-1.746,0.077-2.605
		c0.42-1.356,1.445-2.079,2.904-2.057c1.42,0.022,2.428,0.744,2.81,2.06C1569.621,1832.697,1569.659,1833.17,1569.735,1833.609z
		 M1565.062,1833.699c0.105,0.449,0.169,0.95,0.344,1.408c0.195,0.511,0.625,0.751,1.189,0.751c0.549,0.001,0.993-0.176,1.232-0.688
		c0.447-0.961,0.445-1.947,0.033-2.912c-0.23-0.538-0.707-0.797-1.288-0.772c-0.579,0.025-1.027,0.315-1.215,0.876
		C1565.22,1832.771,1565.167,1833.209,1565.062,1833.699z"/>
	<path fill-rule="evenodd" clip-rule="evenodd" d="M1622.894,1836.621c-0.918,0.436-1.73,0.743-2.704,0.419
		c-1.711-0.569-1.871-2.674-0.604-3.396c0.106-0.061,0.196-0.152,0.335-0.262c-0.135-0.279-0.286-0.546-0.397-0.828
		c-0.289-0.729-0.248-1.428,0.312-2.016c0.55-0.578,1.255-0.713,1.999-0.501c1.111,0.316,1.544,1.616,0.866,2.596
		c-0.229,0.33-0.548,0.597-0.912,0.983c0.307,0.367,0.636,0.762,1.064,1.273c0.187-0.429,0.325-0.747,0.489-1.124
		c0.329,0,0.688,0,1.193,0c-0.215,0.763-0.406,1.443-0.619,2.197c0.207,0.274,0.463,0.616,0.794,1.058
		C1623.985,1837.109,1623.382,1837.253,1622.894,1836.621z M1620.808,1834.288c-0.632,0.532-0.743,0.862-0.466,1.276
		c0.304,0.454,0.846,0.49,1.614,0.059C1621.566,1835.169,1621.187,1834.729,1620.808,1834.288z M1621.054,1832.791
		c0.308-0.303,0.573-0.46,0.669-0.688c0.094-0.222,0.115-0.6-0.016-0.755c-0.123-0.147-0.507-0.177-0.736-0.113
		c-0.337,0.095-0.458,0.414-0.344,0.753C1620.705,1832.213,1620.851,1832.415,1621.054,1832.791z"/>
	<path fill-rule="evenodd" clip-rule="evenodd" d="M1609.421,1833.665c-0.07,0.458-0.109,0.896-0.207,1.32
		c-0.354,1.54-1.576,2.214-2.891,2.212c-1.414-0.002-2.536-0.729-2.9-2.205c-0.221-0.897-0.234-1.804,0.026-2.696
		c0.402-1.378,1.408-2.105,2.868-2.104c1.458,0.001,2.486,0.736,2.871,2.102C1609.313,1832.74,1609.347,1833.214,1609.421,1833.665z
		 M1604.738,1833.683c0.115,0.479,0.183,0.979,0.36,1.438c0.198,0.512,0.633,0.741,1.197,0.738c0.551-0.002,0.99-0.188,1.224-0.7
		c0.439-0.963,0.44-1.95,0.019-2.912c-0.234-0.537-0.713-0.789-1.294-0.76c-0.539,0.026-0.98,0.285-1.169,0.803
		C1604.917,1832.723,1604.853,1833.191,1604.738,1833.683z"/>
	<path fill-rule="evenodd" clip-rule="evenodd" d="M1457.924,1837.027c0-2.273,0-4.459,0-6.705c1.547,0,3.038,0,4.586,0
		c0,0.376,0,0.709,0,1.184c-0.966,0-1.951,0-2.987,0c0,0.5,0,0.861,0,1.345c0.845,0,1.677,0,2.557,0c0,0.484,0,0.849,0,1.337
		c-0.83,0-1.657,0-2.548,0c0,0.575,0,1.031,0,1.596c0.983,0,1.973,0,3.021,0c0,0.465,0,0.822,0,1.244
		C1461.017,1837.027,1459.522,1837.027,1457.924,1837.027z"/>
	<path fill-rule="evenodd" clip-rule="evenodd" d="M1471.789,1834.175c0,0.625,0,1.059,0,1.6c0.999,0,1.989,0,3.042,0
		c0,0.463,0,0.819,0,1.247c-1.523,0-3.016,0-4.509,0c-0.21-0.65-0.257-5.567-0.052-6.693c1.477,0,2.966,0,4.519,0
		c0,0.384,0,0.739,0,1.203c-0.997,0-1.958,0-2.976,0c0,0.466,0,0.826,0,1.311c0.828,0,1.659,0,2.545,0c0,0.483,0,0.847,0,1.333
		C1473.541,1834.175,1472.715,1834.175,1471.789,1834.175z"/>
	<path fill-rule="evenodd" clip-rule="evenodd" d="M1578.323,1832.855c0.92,0,1.727,0,2.602,0c0,0.476,0,0.862,0,1.337
		c-0.811,0-1.62,0-2.51,0c0,0.56,0,1.035,0,1.617c1.005,0,1.996,0,3.023,0c0,0.44,0,0.776,0,1.098
		c-0.696,0.228-3.604,0.263-4.64,0.056c0-2.171,0-4.354,0-6.587c0.745-0.224,1.497-0.087,2.236-0.11
		c0.75-0.023,1.501-0.005,2.325-0.005c0,0.427,0,0.782,0,1.25c-0.96,0-1.919,0-2.973,0
		C1578.365,1831.975,1578.348,1832.335,1578.323,1832.855z"/>
	<path fill-rule="evenodd" clip-rule="evenodd" d="M1656.842,1830.326c1.573,0,3.065,0,4.604,0c0,0.396,0,0.727,0,1.186
		c-1.006,0-1.992,0-3.044,0c0,0.482,0,0.839,0,1.326c0.827,0,1.657,0,2.542,0c0,0.49,0,0.854,0,1.352c-0.831,0-1.656,0-2.545,0
		c0,0.583,0,1.035,0,1.588c1.005,0,1.995,0,3.048,0c0,0.452,0,0.811,0,1.243c-1.516,0-3.034,0-4.605,0
		C1656.842,1834.79,1656.842,1832.605,1656.842,1830.326z"/>
	<path fill-rule="evenodd" clip-rule="evenodd" d="M1560.605,1830.766c0,0.38,0,0.688,0,1.098c-0.489-0.109-0.929-0.216-1.372-0.305
		c-1.465-0.296-2.328,0.361-2.41,1.84c-0.016,0.281-0.015,0.568,0.025,0.847c0.184,1.279,0.852,1.736,2.29,1.481
		c0-0.313,0-0.648,0-0.984c0-0.309,0-0.618,0-1.002c0.537,0,0.988,0,1.54,0c0.1,0.87,0.056,1.741,0.024,2.608
		c-0.005,0.139-0.184,0.339-0.327,0.396c-0.976,0.379-1.955,0.646-3.025,0.299c-1.065-0.346-1.764-1.034-1.931-2.104
		c-0.128-0.822-0.147-1.705,0.005-2.52c0.265-1.412,1.276-2.156,2.77-2.222C1559.026,1830.161,1559.815,1830.345,1560.605,1830.766z
		"/>
	<path fill-rule="evenodd" clip-rule="evenodd" d="M1572.172,1834.671c0,0.858,0,1.569,0,2.352c-0.533,0-0.981,0-1.494,0
		c0-2.231,0-4.438,0-6.752c1.257,0.005,2.476-0.124,3.678,0.101c1.029,0.192,1.63,1.115,1.582,2.25
		c-0.046,1.1-0.765,1.933-1.835,2.039C1573.514,1834.72,1572.916,1834.671,1572.172,1834.671z M1572.222,1831.583
		c0,0.646,0,1.189,0,1.806c0.49,0,0.922,0.026,1.349-0.007c0.527-0.042,0.794-0.337,0.823-0.83c0.032-0.526-0.235-0.889-0.794-0.958
		C1573.176,1831.541,1572.741,1831.583,1572.222,1831.583z"/>
	<path fill-rule="evenodd" clip-rule="evenodd" d="M1484.043,1830.238c0.447,0,0.816,0,1.281,0c0.794,2.225,1.591,4.456,2.424,6.789
		c-0.584,0-1.036,0-1.557,0c-0.159-0.453-0.324-0.921-0.511-1.457c-0.672,0-1.348,0-2.108,0c-0.165,0.453-0.344,0.945-0.538,1.477
		c-0.438,0-0.87,0-1.449,0C1482.338,1834.714,1483.242,1832.5,1484.043,1830.238z M1484.71,1832.174
		c-0.067,0.007-0.133,0.013-0.2,0.02c-0.209,0.683-0.418,1.365-0.634,2.068c0.561,0,1.002,0,1.511,0
		C1485.141,1833.503,1484.925,1832.839,1484.71,1832.174z"/>
	<path fill-rule="evenodd" clip-rule="evenodd" d="M1533.388,1837.032c-0.571,0-1.025,0-1.542,0
		c-0.181-0.479-0.367-0.97-0.581-1.536c-0.473,0-0.939,0.021-1.404-0.006c-0.477-0.027-0.78,0.104-0.866,0.628
		c-0.05,0.302-0.196,0.588-0.313,0.922c-0.45,0-0.877,0-1.305,0c0.001-0.665,1.735-5.571,2.409-6.803c0.349,0,0.719,0,1.177,0
		C1531.758,1832.467,1532.556,1834.703,1533.388,1837.032z M1530.356,1832.166c-0.062-0.013-0.123-0.025-0.185-0.037
		c-0.22,0.695-0.44,1.392-0.678,2.146c0.549,0,0.991,0,1.52,0C1530.776,1833.515,1530.566,1832.84,1530.356,1832.166z"/>
	<path fill-rule="evenodd" clip-rule="evenodd" d="M1637.494,1830.236c0.451,0,0.82,0,1.278,0c0.797,2.231,1.593,4.463,2.425,6.795
		c-0.589,0-1.042,0-1.557,0c-0.162-0.462-0.326-0.931-0.512-1.463c-0.677,0-1.354,0-2.104,0c-0.169,0.46-0.349,0.952-0.542,1.48
		c-0.443,0-0.875,0-1.447,0C1635.789,1834.712,1636.692,1832.496,1637.494,1830.236z M1637.303,1834.261c0.584,0,1.025,0,1.532,0
		c-0.246-0.759-0.461-1.423-0.677-2.088c-0.065,0.007-0.129,0.013-0.194,0.02C1637.75,1832.86,1637.537,1833.528,1637.303,1834.261z
		"/>
	<path fill-rule="evenodd" clip-rule="evenodd" d="M1592.319,1835.538c-0.705-0.005-1.397-0.196-1.868,0.045
		c-0.397,0.204-0.536,0.91-0.824,1.46c-0.363,0-0.79,0-1.363,0c0.739-2.313,1.649-4.5,2.44-6.781c0.422,0,0.817,0,1.306,0
		c0.79,2.211,1.587,4.447,2.417,6.773c-0.576,0-1.031,0-1.542,0C1592.701,1836.548,1592.515,1836.057,1592.319,1835.538z
		 M1590.534,1834.272c0.548,0,0.99,0,1.533,0c-0.253-0.774-0.477-1.458-0.7-2.142c-0.053,0-0.105,0-0.158,0
		C1590.99,1832.827,1590.771,1833.522,1590.534,1834.272z"/>
	<path fill-rule="evenodd" clip-rule="evenodd" d="M1674.932,1837.034c-0.574,0-1.029,0-1.543,0
		c-0.183-0.484-0.368-0.976-0.541-1.433c-0.108-0.043-0.165-0.086-0.222-0.086c-0.566-0.001-1.238-0.182-1.666,0.063
		c-0.4,0.229-0.54,0.911-0.83,1.463c-0.359,0-0.786,0-1.36,0c0.737-2.311,1.648-4.497,2.438-6.779c0.422,0,0.817,0,1.307,0
		C1673.303,1832.471,1674.101,1834.706,1674.932,1837.034z M1671.885,1832.123c-0.052-0.004-0.104-0.008-0.157-0.012
		c-0.225,0.707-0.449,1.414-0.692,2.18c0.57,0,0.992,0,1.52,0C1672.317,1833.519,1672.101,1832.82,1671.885,1832.123z"/>
	<path fill-rule="evenodd" clip-rule="evenodd" d="M1501.004,1830.799c0,0.32,0,0.653,0,1.068c-0.546-0.114-1.027-0.223-1.511-0.316
		c-1.412-0.274-2.268,0.368-2.381,1.789c-0.018,0.219-0.017,0.441-0.001,0.66c0.092,1.336,0.75,1.939,2.078,1.838
		c0.587-0.045,1.165-0.2,1.808-0.316c0,0.357,0,0.69,0,1.104c-1.056,0.429-2.12,0.803-3.33,0.421
		c-1.062-0.336-1.78-1.006-1.953-2.08c-0.132-0.822-0.161-1.703-0.013-2.519c0.26-1.436,1.31-2.189,2.847-2.256
		C1499.326,1830.158,1500.169,1830.364,1501.004,1830.799z"/>
	<path fill-rule="evenodd" clip-rule="evenodd" d="M1539.437,1831.875c-0.598-0.133-1.083-0.257-1.575-0.347
		c-1.283-0.234-2.064,0.334-2.252,1.626c-0.023,0.155-0.048,0.312-0.051,0.468c-0.041,1.702,0.778,2.438,2.462,2.19
		c0.455-0.066,0.899-0.197,1.41-0.313c0,0.399,0,0.734,0,1.062c-1.757,0.972-3.683,0.814-4.686-0.374
		c-1.001-1.187-1.004-3.721-0.045-4.969c0.725-0.943,2.712-1.509,4.726-0.439c0.017,0.162,0.047,0.346,0.053,0.53
		C1539.482,1831.461,1539.457,1831.612,1539.437,1831.875z"/>
	<path fill-rule="evenodd" clip-rule="evenodd" d="M1687.583,1836.601c-2.003,0.919-3.768,0.73-4.726-0.474
		c-0.956-1.199-0.941-3.663-0.011-4.894c0.717-0.948,2.674-1.524,4.741-0.46c0,0.307,0,0.639,0,1.076
		c-0.508-0.104-0.983-0.202-1.458-0.295c-1.435-0.281-2.244,0.305-2.38,1.768c-0.038,0.4-0.006,0.82,0.073,1.216
		c0.173,0.863,0.708,1.329,1.584,1.302c0.709-0.022,1.415-0.177,2.177-0.28C1687.583,1835.884,1687.583,1836.218,1687.583,1836.601z
		"/>
	<path fill-rule="evenodd" clip-rule="evenodd" d="M1654.206,1831.602c0,1.842,0,3.595,0,5.419c-0.528,0-0.978,0-1.529,0
		c0-1.792,0-3.569,0-5.415c-0.645-0.043-1.195-0.08-1.795-0.121c0-0.39,0-0.722,0-1.048c0.683-0.217,4.011-0.257,5.093-0.057
		c0.017,0.163,0.044,0.342,0.05,0.521c0.006,0.154-0.014,0.31-0.028,0.576C1655.443,1831.516,1654.898,1831.553,1654.206,1831.602z"
		/>
	<path fill-rule="evenodd" clip-rule="evenodd" d="M1518.672,1837.047c-0.528,0-0.954,0-1.482,0c0-1.808,0-3.585,0-5.434
		c-0.645-0.046-1.195-0.086-1.799-0.129c0-0.403,0-0.761,0-1.171c1.713,0,3.365,0,5.079,0c0,0.399,0,0.756,0,1.175
		c-0.555,0.035-1.079,0.068-1.732,0.109C1518.646,1833.406,1518.759,1835.211,1518.672,1837.047z"/>
	<path fill-rule="evenodd" clip-rule="evenodd" d="M1545.236,1830.312c0,0.453,0,0.786,0,1.176
		c-0.569,0.036-1.092,0.069-1.721,0.109c-0.111,0.91-0.04,1.813-0.053,2.708c-0.013,0.878-0.003,1.756-0.003,2.711
		c-0.516,0-0.965,0-1.516,0c0-1.779,0-3.558,0-5.405c-0.645-0.045-1.196-0.083-1.796-0.125c0-0.407,0-0.765,0-1.174
		C1541.863,1830.312,1543.516,1830.312,1545.236,1830.312z"/>
	<path fill-rule="evenodd" clip-rule="evenodd" d="M1492.917,1837.039c-1.507,0-2.94,0-4.44,0c0-2.26,0-4.477,0-6.764
		c0.462,0,0.913,0,1.456,0c0,1.818,0,3.601,0,5.509c1.041,0,1.994,0,2.985,0C1492.917,1836.247,1492.917,1836.583,1492.917,1837.039
		z"/>
	<path fill-rule="evenodd" clip-rule="evenodd" d="M1598.181,1837.038c-0.519,0-0.944,0-1.475,0
		c-0.194-1.765,0.013-3.545-0.125-5.427c-0.546-0.038-1.092-0.077-1.703-0.12c0-0.376,0-0.731,0-1.161c1.66,0,3.305,0,5.027,0
		c0,0.359,0,0.713,0,1.149c-0.543,0.042-1.09,0.083-1.725,0.131C1598.181,1833.436,1598.181,1835.211,1598.181,1837.038z"/>
	<path fill-rule="evenodd" clip-rule="evenodd" d="M1641.821,1830.264c0.5,0,0.951,0,1.461,0c0,2.268,0,4.476,0,6.758
		c-0.48,0-0.932,0-1.385,0C1641.707,1836.363,1641.646,1831.842,1641.821,1830.264z"/>
	<path fill-rule="evenodd" clip-rule="evenodd" d="M1602.28,1830.287c0,2.263,0,4.471,0,6.743c-0.503,0-0.955,0-1.478,0
		c0-2.241,0-4.45,0-6.743C1601.288,1830.287,1601.76,1830.287,1602.28,1830.287z"/>
	<path fill-rule="evenodd" clip-rule="evenodd" d="M1546.049,1830.257c0.545,0,0.971,0,1.388,0c0.201,0.756,0.219,5.866,0.021,6.787
		c-0.414,0-0.839,0-1.404,0C1546.042,1834.804,1546.051,1832.589,1546.049,1830.257z"/>
</g>
</svg>
